<svg width="286" height="62" viewBox="0 0 286 62" fill="none" xmlns="http://www.w3.org/2000/svg">
<path d="M3.87922 0H16.9407C19.0824 0 20.8199 1.71844 20.8199 3.8418V41.2356H37.7583C39.8998 41.2356 41.6376 39.5173 41.6376 37.3938V3.8418C41.6376 1.72081 43.3726 0 45.5166 0H58.5782C60.7198 0 62.4575 1.71844 62.4575 3.8418V41.2356H79.3981C81.5397 41.2356 83.2774 39.5173 83.2774 37.3938V3.8418C83.2774 1.72081 85.0124 0 87.1567 0H100.218C102.36 0 104.097 1.71844 104.097 3.8418V39.6445C104.097 40.6637 103.688 41.6406 102.961 42.361L84.4158 60.7272C83.6885 61.4476 82.7021 61.8522 81.6728 61.8522H62.9828C60.841 61.8522 59.1035 60.1339 59.1035 58.0104V44.5596L42.7784 60.7272C42.0511 61.4476 41.0647 61.8522 40.0354 61.8522H22.4315C21.4023 61.8522 20.4158 61.4476 19.6885 60.7272L1.13619 42.3585C0.40884 41.6381 0 40.6613 0 39.6421V3.8418C0 1.71844 1.73519 0 3.87922 0Z" fill="white"/>
<path d="M168.173 53.5175L163.091 36.8109L158.478 21.3849L153.926 36.8087L148.78 53.5175H137.674L125.098 8.33887H135.699L140.001 25.5703L143.878 41.1635L148.713 25.5539L153.921 8.33887H163.417L168.625 25.5539L173.462 41.3402L177.339 25.5727L181.639 8.33887H191.791L179.279 53.5175H168.173Z" fill="white"/>
<path d="M233.413 53.5175V8.33887H273.895V16.3285H243.855V26.7121H264.587V34.5088H243.855V53.5175H233.413Z" fill="white"/>
<path d="M286 20.0117H276.012V26.7043H286V20.0117Z" fill="white"/>
<path d="M286 30.418H276.012V53.5158H286V30.418Z" fill="white"/>
<path d="M200.775 38.7405C200.839 43.5805 204.328 46.596 209.722 46.596C213.592 46.596 216.004 45.2753 217.209 42.4481H228.314C227.3 45.2753 225.966 47.0998 223.427 49.1737C219.81 52.1278 215.557 53.5096 210.038 53.5096C203.439 53.5096 198.234 51.7511 194.999 48.4816C192.144 45.5908 190.621 41.5677 190.621 36.9796C190.621 26.6101 197.982 20.0117 209.658 20.0117C217.528 20.0117 223.427 22.9025 226.285 28.2438C227.934 31.2617 228.569 34.2136 228.697 38.7381L200.775 38.7405ZM217.972 32.5823C216.957 28.3098 214.164 26.1723 209.532 26.1723C204.899 26.1723 202.044 28.3098 201.091 32.5823H217.972Z" fill="white"/>
</svg>
