<svg width="1874" height="260" viewBox="0 0 1874 260" fill="none" xmlns="http://www.w3.org/2000/svg">
<path fill-rule="evenodd" clip-rule="evenodd" d="M184.119 0.554062C215.75 0.554062 244.399 20.8274 256.232 50.8548L317.757 216.482C321.032 224.33 328.396 229.367 336.279 229.367H368.808V259.336H336.279C315.948 259.336 297.322 246.119 290.126 226.468L272.766 179.775C269.657 171.499 262.078 166.14 253.947 166.139C245.761 166.139 238.231 171.36 235.139 179.754L235.128 179.775L217.769 226.468C210.573 246.118 191.946 259.335 171.615 259.336H0V229.367H32.1586C40.1273 229.365 47.8672 223.98 50.9671 215.731L111.645 52.2934C123.113 21.4959 151.968 0.555387 184.119 0.554062ZM184.119 30.5229C164.337 30.5242 145.991 43.4339 138.8 63.0094V63.0306L76.9162 229.367H101.797C109.771 229.364 117.52 223.969 120.616 215.71L159.629 110.761V110.74C169.232 85.1888 192.485 68.3622 219.038 68.3622C223.426 68.3625 227.755 68.8635 231.954 69.8114L229.098 62.1314C221.498 43.005 203.562 30.5229 184.119 30.5229ZM218.848 98.5214C204.676 98.5218 192.097 107.306 186.774 121.508L146.554 229.367H171.424C179.4 229.367 187.158 223.971 190.254 215.71L207.603 169.027C214.845 149.573 232.438 136.548 252.667 136.35H253.63C254.577 136.351 255.51 136.385 256.423 136.445L250.911 121.477C245.759 107.65 232.99 98.5224 218.848 98.5214Z" fill="#4C9AF8"/>
<path d="M882.506 82.5129H920.403V254.481H882.506V82.5129Z" fill="white"/>
<path d="M920.394 35.3064C920.394 45.7755 911.912 54.2624 901.449 54.2624C890.986 54.2624 882.504 45.7755 882.504 35.3064C882.504 24.8373 890.986 16.3504 901.449 16.3504C911.912 16.3504 920.394 24.8373 920.394 35.3064Z" fill="white"/>
<path d="M1836.1 16.3504H1874V253.846H1836.1V16.3504Z" fill="white"/>
<path d="M1798.93 217.091C1798.93 221.748 1799.48 225.074 1800.59 227.07C1801.92 229.066 1804.36 230.064 1807.91 230.064C1809.01 230.064 1810.34 230.064 1811.89 230.064C1813.45 230.064 1815.22 229.842 1817.21 229.398V255.676C1815.88 256.119 1814.11 256.563 1811.89 257.006C1809.9 257.672 1807.79 258.226 1805.58 258.669C1803.36 259.113 1801.15 259.446 1798.93 259.667C1796.71 259.889 1794.83 260 1793.28 260C1785.52 260 1779.09 258.448 1774 255.343C1768.9 252.239 1765.58 246.806 1764.02 239.044C1756.49 246.362 1747.18 251.684 1736.1 255.011C1725.24 258.337 1714.71 260 1704.52 260C1696.76 260 1689.34 258.891 1682.25 256.674C1675.15 254.678 1668.84 251.684 1663.3 247.693C1657.98 243.479 1653.66 238.268 1650.33 232.059C1647.23 225.628 1645.68 218.2 1645.68 209.773C1645.68 199.129 1647.56 190.481 1651.33 183.828C1655.32 177.176 1660.42 171.965 1666.62 168.195C1673.05 164.425 1680.14 161.764 1687.9 160.212C1695.88 158.438 1703.85 157.107 1711.83 156.22C1718.7 154.89 1725.24 154.003 1731.45 153.559C1737.65 152.894 1743.08 151.896 1747.74 150.566C1752.61 149.235 1756.38 147.239 1759.04 144.578C1761.92 141.696 1763.36 137.482 1763.36 131.938C1763.36 127.06 1762.14 123.068 1759.7 119.964C1757.49 116.859 1754.61 114.531 1751.06 112.979C1747.74 111.205 1743.97 110.096 1739.76 109.652C1735.55 108.987 1731.56 108.655 1727.79 108.655C1717.15 108.655 1708.4 110.872 1701.53 115.307C1694.66 119.742 1690.78 126.616 1689.89 135.93H1652C1652.66 124.842 1655.32 115.64 1659.97 108.322C1664.63 101.004 1670.5 95.1277 1677.59 90.6926C1684.91 86.2576 1693.11 83.1531 1702.19 81.3791C1711.28 79.6051 1720.59 78.7181 1730.12 78.7181C1738.54 78.7181 1746.85 79.6051 1755.05 81.3791C1763.25 83.1531 1770.56 86.0358 1776.99 90.0274C1783.64 94.0189 1788.96 99.2301 1792.95 105.661C1796.94 111.87 1798.93 119.52 1798.93 128.612V217.091ZM1761.03 169.193C1755.27 172.962 1748.18 175.291 1739.76 176.178C1731.34 176.843 1722.91 177.952 1714.49 179.504C1710.5 180.169 1706.62 181.167 1702.86 182.498C1699.09 183.607 1695.77 185.27 1692.88 187.487C1690 189.483 1687.68 192.255 1685.9 195.803C1684.35 199.129 1683.58 203.232 1683.58 208.11C1683.58 212.323 1684.8 215.871 1687.23 218.754C1689.67 221.637 1692.55 223.965 1695.88 225.739C1699.42 227.292 1703.19 228.4 1707.18 229.066C1711.39 229.731 1715.16 230.064 1718.48 230.064C1722.69 230.064 1727.24 229.509 1732.11 228.4C1736.99 227.292 1741.53 225.407 1745.74 222.746C1750.17 220.085 1753.83 216.758 1756.71 212.767C1759.59 208.554 1761.03 203.453 1761.03 197.466V169.193Z" fill="white"/>
<path d="M1475.87 83.3748H1511.77V108.655L1512.43 109.32C1518.2 99.7845 1525.73 92.3558 1535.04 87.0337C1544.35 81.4899 1554.65 78.7181 1565.96 78.7181C1584.79 78.7181 1599.64 83.5966 1610.5 93.3537C1621.36 103.111 1626.79 117.746 1626.79 137.26V255.343H1588.89V147.239C1588.45 133.712 1585.57 123.955 1580.25 117.968C1574.93 111.759 1566.62 108.655 1555.32 108.655C1548.89 108.655 1543.13 109.874 1538.03 112.313C1532.93 114.531 1528.61 117.746 1525.07 121.96C1521.52 125.951 1518.75 130.719 1516.76 136.263C1514.76 141.806 1513.76 147.683 1513.76 153.892V255.343H1475.87V83.3748Z" fill="white"/>
<path d="M1370.21 260C1356.47 260 1344.17 257.782 1333.31 253.347C1322.68 248.691 1313.59 242.371 1306.06 234.388C1298.74 226.405 1293.09 216.869 1289.1 205.782C1285.33 194.694 1283.45 182.498 1283.45 169.193C1283.45 156.109 1285.33 144.024 1289.1 132.936C1293.09 121.849 1298.74 112.313 1306.06 104.33C1313.59 96.3473 1322.68 90.1383 1333.31 85.7032C1344.17 81.0464 1356.47 78.7181 1370.21 78.7181C1383.96 78.7181 1396.14 81.0464 1406.78 85.7032C1417.64 90.1383 1426.73 96.3473 1434.04 104.33C1441.58 112.313 1447.23 121.849 1451 132.936C1454.98 144.024 1456.98 156.109 1456.98 169.193C1456.98 182.498 1454.98 194.694 1451 205.782C1447.23 216.869 1441.58 226.405 1434.04 234.388C1426.73 242.371 1417.64 248.691 1406.78 253.347C1396.14 257.782 1383.96 260 1370.21 260ZM1370.21 230.064C1378.64 230.064 1385.95 228.29 1392.16 224.741C1398.36 221.193 1403.46 216.537 1407.45 210.771C1411.44 205.006 1414.32 198.575 1416.09 191.479C1418.09 184.161 1419.08 176.732 1419.08 169.193C1419.08 161.875 1418.09 154.557 1416.09 147.239C1414.32 139.921 1411.44 133.491 1407.45 127.947C1403.46 122.181 1398.36 117.525 1392.16 113.977C1385.95 110.429 1378.64 108.655 1370.21 108.655C1361.79 108.655 1354.48 110.429 1348.27 113.977C1342.07 117.525 1336.97 122.181 1332.98 127.947C1328.99 133.491 1326 139.921 1324.01 147.239C1322.23 154.557 1321.35 161.875 1321.35 169.193C1321.35 176.732 1322.23 184.161 1324.01 191.479C1326 198.575 1328.99 205.006 1332.98 210.771C1336.97 216.537 1342.07 221.193 1348.27 224.741C1354.48 228.29 1361.79 230.064 1370.21 230.064Z" fill="white"/>
<path d="M1264.55 35.3064C1264.55 45.7755 1256.07 54.2624 1245.61 54.2624C1235.15 54.2624 1226.66 45.7755 1226.66 35.3064C1226.66 24.8373 1235.15 16.3504 1245.61 16.3504C1256.07 16.3504 1264.55 24.8373 1264.55 35.3064Z" fill="white"/>
<path d="M1226.66 82.5129H1264.56V254.481H1226.66V82.5129Z" fill="white"/>
<path d="M1107.05 83.0271H1135.64V31.4698H1173.53V83.0271H1207.78V111.3H1173.53V203.106C1173.53 207.097 1173.65 210.534 1173.87 213.417C1174.31 216.3 1175.09 218.739 1176.19 220.735C1177.52 222.731 1179.41 224.283 1181.85 225.392C1184.28 226.279 1187.61 226.722 1191.82 226.722C1194.48 226.722 1197.14 226.722 1199.8 226.722C1202.46 226.5 1205.12 226.057 1207.78 225.392V254.663C1203.56 255.106 1199.46 255.55 1195.48 255.993C1191.49 256.437 1187.39 256.659 1183.18 256.659C1173.2 256.659 1165.11 255.772 1158.91 253.998C1152.92 252.002 1148.16 249.23 1144.61 245.682C1141.29 241.912 1138.96 237.255 1137.63 231.712C1136.52 226.168 1135.86 219.848 1135.64 212.752V111.3H1107.05V83.0271Z" fill="white"/>
<path d="M1092.54 217.091C1092.54 221.748 1093.1 225.074 1094.2 227.07C1095.53 229.066 1097.97 230.064 1101.52 230.064C1102.63 230.064 1103.96 230.064 1105.51 230.064C1107.06 230.064 1108.83 229.842 1110.83 229.398V255.676C1109.5 256.119 1107.72 256.563 1105.51 257.006C1103.51 257.672 1101.41 258.226 1099.19 258.669C1096.97 259.113 1094.76 259.446 1092.54 259.667C1090.33 259.889 1088.44 260 1086.89 260C1079.13 260 1072.71 258.448 1067.61 255.343C1062.51 252.239 1059.19 246.806 1057.64 239.044C1050.1 246.362 1040.79 251.684 1029.71 255.011C1018.85 258.337 1008.33 260 998.131 260C990.374 260 982.95 258.891 975.858 256.674C968.766 254.678 962.45 251.684 956.909 247.693C951.59 243.479 947.269 238.268 943.945 232.059C940.842 225.628 939.29 218.2 939.29 209.773C939.29 199.129 941.174 190.481 944.942 183.828C948.931 177.176 954.028 171.965 960.234 168.195C966.661 164.425 973.753 161.764 981.509 160.212C989.488 158.438 997.466 157.107 1005.44 156.22C1012.31 154.89 1018.85 154.003 1025.06 153.559C1031.26 152.894 1036.69 151.896 1041.35 150.566C1046.22 149.235 1049.99 147.239 1052.65 144.578C1055.53 141.696 1056.97 137.482 1056.97 131.938C1056.97 127.06 1055.75 123.068 1053.31 119.964C1051.1 116.859 1048.22 114.531 1044.67 112.979C1041.35 111.205 1037.58 110.096 1033.37 109.652C1029.16 108.987 1025.17 108.655 1021.4 108.655C1010.76 108.655 1002.01 110.872 995.139 115.307C988.269 119.742 984.39 126.616 983.504 135.93H945.607C946.272 124.842 948.931 115.64 953.585 108.322C958.239 101.004 964.112 95.1277 971.204 90.6926C978.517 86.2576 986.717 83.1531 995.804 81.3791C1004.89 79.6051 1014.2 78.7181 1023.73 78.7181C1032.15 78.7181 1040.46 79.6051 1048.66 81.3791C1056.86 83.1531 1064.17 86.0358 1070.6 90.0274C1077.25 94.0189 1082.57 99.2301 1086.56 105.661C1090.55 111.87 1092.54 119.52 1092.54 128.612V217.091ZM1054.64 169.193C1048.88 172.962 1041.79 175.291 1033.37 176.178C1024.95 176.843 1016.53 177.952 1008.1 179.504C1004.11 180.169 1000.24 181.167 996.469 182.498C992.701 183.607 989.377 185.27 986.496 187.487C983.615 189.483 981.288 192.255 979.515 195.803C977.963 199.129 977.188 203.232 977.188 208.11C977.188 212.323 978.407 215.871 980.844 218.754C983.282 221.637 986.163 223.965 989.488 225.739C993.034 227.292 996.801 228.4 1000.79 229.066C1005 229.731 1008.77 230.064 1012.09 230.064C1016.3 230.064 1020.85 229.509 1025.72 228.4C1030.6 227.292 1035.14 225.407 1039.35 222.746C1043.78 220.085 1047.44 216.758 1050.32 212.767C1053.2 208.554 1054.64 203.453 1054.64 197.466V169.193Z" fill="white"/>
<path d="M762.889 83.3748H798.459V120.417H799.124C800.232 115.761 802.337 111.215 805.44 106.78C808.764 102.345 812.643 98.3532 817.075 94.8051C821.729 91.0353 826.827 88.0417 832.367 85.8242C837.908 83.6067 843.559 82.4979 849.321 82.4979C853.754 82.4979 856.745 82.6088 858.297 82.8305C860.07 83.0523 861.843 83.274 863.616 83.4958V120.085C860.956 119.641 858.186 119.309 855.305 119.087C852.645 118.643 849.986 118.422 847.327 118.422C840.9 118.422 834.805 119.752 829.043 122.413C823.502 124.852 818.627 128.622 814.416 133.723C810.205 138.601 806.881 144.699 804.443 152.017C802.005 159.335 800.786 167.761 800.786 177.297V255.343H762.889V83.3748Z" fill="white"/>
<path d="M725.716 217.091C725.716 221.748 726.27 225.074 727.378 227.07C728.708 229.066 731.146 230.064 734.692 230.064C735.8 230.064 737.13 230.064 738.681 230.064C740.232 230.064 742.005 229.842 744 229.398V255.676C742.67 256.119 740.897 256.563 738.681 257.006C736.686 257.672 734.581 258.226 732.365 258.669C730.149 259.113 727.932 259.446 725.716 259.667C723.5 259.889 721.616 260 720.065 260C712.308 260 705.881 258.448 700.784 255.343C695.686 252.239 692.362 246.806 690.811 239.044C683.276 246.362 673.968 251.684 662.886 255.011C652.027 258.337 641.5 260 631.305 260C623.549 260 616.124 258.891 609.032 256.674C601.941 254.678 595.624 251.684 590.084 247.693C584.765 243.479 580.443 238.268 577.119 232.059C574.016 225.628 572.465 218.2 572.465 209.773C572.465 199.129 574.349 190.481 578.116 183.828C582.105 177.176 587.203 171.965 593.408 168.195C599.835 164.425 606.927 161.764 614.684 160.212C622.662 158.438 630.641 157.107 638.619 156.22C645.489 154.89 652.027 154.003 658.232 153.559C664.438 152.894 669.868 151.896 674.522 150.566C679.397 149.235 683.165 147.239 685.824 144.578C688.705 141.696 690.146 137.482 690.146 131.938C690.146 127.06 688.927 123.068 686.489 119.964C684.273 116.859 681.392 114.531 677.846 112.979C674.522 111.205 670.754 110.096 666.543 109.652C662.332 108.987 658.343 108.655 654.576 108.655C643.938 108.655 635.184 110.872 628.314 115.307C621.443 119.742 617.565 126.616 616.678 135.93H578.781C579.446 124.842 582.105 115.64 586.76 108.322C591.414 101.004 597.287 95.1277 604.378 90.6926C611.692 86.2576 619.892 83.1531 628.978 81.3791C638.065 79.6051 647.373 78.7181 656.903 78.7181C665.324 78.7181 673.635 79.6051 681.835 81.3791C690.035 83.1531 697.349 86.0358 703.776 90.0274C710.424 94.0189 715.743 99.2301 719.732 105.661C723.722 111.87 725.716 119.52 725.716 128.612V217.091ZM687.819 169.193C682.057 172.962 674.965 175.291 666.543 176.178C658.122 176.843 649.7 177.952 641.278 179.504C637.289 180.169 633.411 181.167 629.643 182.498C625.876 183.607 622.551 185.27 619.67 187.487C616.789 189.483 614.462 192.255 612.689 195.803C611.138 199.129 610.362 203.232 610.362 208.11C610.362 212.323 611.581 215.871 614.019 218.754C616.457 221.637 619.338 223.965 622.662 225.739C626.208 227.292 629.976 228.4 633.965 229.066C638.176 229.731 641.943 230.064 645.268 230.064C649.478 230.064 654.022 229.509 658.897 228.4C663.773 227.292 668.316 225.407 672.527 222.746C676.959 220.085 680.616 216.758 683.497 212.767C686.378 208.554 687.819 203.453 687.819 197.466V169.193Z" fill="white"/>
<path d="M387.436 16.9853H430.653L490.158 204.92H490.823L551.658 16.9853H593.877L512.763 254.481H466.555L387.436 16.9853Z" fill="white"/>
</svg>
