<svg width="362" height="64" viewBox="0 0 362 64" fill="none" xmlns="http://www.w3.org/2000/svg">
<path d="M74.3414 19.2235C74.3414 22.7559 71.5706 25.6218 68.1463 25.6218H55.747C52.3227 25.6218 49.552 22.7559 49.552 19.2235V6.41735C49.552 2.87543 52.3319 0 55.747 0H68.1463C71.5706 0 74.3414 2.87543 74.3414 6.41735V19.2235Z" fill="#D91C5C"/>
<path d="M43.3837 38.3723H30.8647C27.5049 38.3057 24.8078 35.4778 24.8078 31.974V19.1679C24.7986 15.645 22.0186 12.7696 18.5943 12.7696H6.19504C2.77074 12.76 0 15.6355 0 19.1583V31.955C0 35.4874 2.77074 38.3533 6.19504 38.3533H18.6127C22.0094 38.3723 24.7618 41.2097 24.7802 44.723V57.5768C24.7802 61.1092 27.5509 63.9846 30.9752 63.9846H43.3745C46.7988 63.9846 49.5787 61.1092 49.5787 57.5768V44.7516C49.5787 41.2192 46.7988 38.3533 43.3745 38.3533" fill="#D91C5C"/>
<path d="M157.586 2.58979C157.586 1.1616 156.435 0 155.018 0L144.763 0.609362V3.19915H146.052C146.337 3.2182 147.589 3.38958 147.617 4.78921L147.746 17.0431H137.997V24.8982L147.81 24.9172L147.994 45.1404H155.957C156.868 45.1404 157.595 44.3978 157.595 43.4933V2.59931L157.586 2.58979Z" fill="#E9E9E9"/>
<path d="M123.527 54.4255C122.625 54.4255 121.888 53.6829 121.888 52.7783L122.468 44.0283C122.468 42.5906 121.318 41.4385 119.9 41.4385L109.047 41.7432V44.3425H110.621C110.916 44.3615 112.159 44.5329 112.214 45.9325L111.625 56.5012H111.643C111.662 59.3671 113.944 61.6808 116.77 61.6808H159.132V54.1208L123.536 54.4255H123.527Z" fill="#E9E9E9"/>
<path d="M124.742 12.0545H135.116C136.018 12.0545 136.745 11.3119 136.755 10.4169V10.1312V4.51367H103.662V12.0641H114.469C114.957 25.9556 99.5568 33.1252 99.5568 33.1252L103.699 38.6094L103.764 38.7046C104.012 39.0093 104.39 39.2093 104.804 39.2093L105.411 39.0664C107.501 37.9334 114.184 33.1156 118.501 27.0601C118.749 26.7173 119.145 26.4888 119.606 26.4888C120.066 26.4888 120.462 26.7173 120.71 27.0506C124.871 32.8586 130.67 38.2 133.036 39.5235L133.689 39.7044C134.177 39.7044 134.591 39.4473 134.831 39.076L138.992 33.3251C138.992 33.3251 123.868 25.6509 124.714 12.0641" fill="#E9E9E9"/>
<path d="M290.903 2.64936C290.903 1.21165 289.753 0.0595703 288.335 0.0595703L278.072 0.364251V2.95404H279.36C279.655 2.98261 280.898 3.14447 280.925 4.5441L281.312 45.1334H289.265C290.176 45.1334 290.903 44.3907 290.903 43.4862V2.65888V2.64936Z" fill="#E9E9E9"/>
<path d="M257.305 54.4248C256.403 54.4248 255.675 53.6821 255.666 52.7776L256.246 43.2753C256.246 41.8471 255.096 40.6855 253.669 40.6855L242.816 40.9902V43.5895H244.399C244.694 43.6086 245.936 43.78 245.982 45.1796L245.403 56.4909C245.421 59.3568 247.695 61.6705 250.53 61.6705H292.376V54.1106L257.296 54.4152L257.305 54.4248Z" fill="#E9E9E9"/>
<path d="M269.474 37.0865L269.566 36.9817L274.27 31.6688C274.27 31.6688 258.989 20.8051 259.892 9.54136L259.845 4.96162C259.928 3.55247 258.833 2.40039 257.406 2.40039L247.023 2.72411L246.875 5.30438H248.183C248.468 5.30438 250.07 5.73284 250.024 7.12295L249.867 9.74131C249.49 23.4615 233.28 31.7069 233.28 31.7069L237.468 37.6101C237.716 37.9148 238.085 38.1243 238.517 38.1148L239.226 37.9243C241.748 36.5437 249.352 30.4406 253.632 24.5184C253.89 24.1565 254.322 23.9185 254.81 23.909C255.225 23.909 255.584 24.0804 255.823 24.366L255.887 24.4803V24.5088H255.906C259.707 30.4216 265.332 36.0582 267.633 37.4483H267.651L268.323 37.6387C268.765 37.6387 269.161 37.4387 269.446 37.115L269.474 37.0865Z" fill="#E9E9E9"/>
<path d="M346.281 20.3376H320.664C319.817 20.29 319.145 19.5949 319.108 18.738L319.403 11.4732H346.281V20.3376ZM356.554 5.61764C356.554 4.7036 355.818 3.96094 354.925 3.96094H306.267V6.55073H307.556C307.85 6.57929 309.084 6.74115 309.13 8.14078L308.835 22.6131C308.835 25.4886 311.146 27.8118 313.981 27.8118H354.916C355.818 27.8118 356.536 27.0977 356.554 26.1836V27.3167V5.61764Z" fill="#E9E9E9"/>
<path d="M321.925 54.4236C321.023 54.4236 320.295 53.681 320.295 52.7765L320.572 47.5302C320.572 46.0925 319.43 44.9404 318.003 44.9404L307.151 45.2451V47.8444H308.725C309.019 47.8635 310.262 48.0349 310.308 49.4345L310.013 56.4993H310.032C310.041 59.3652 312.333 61.6789 315.15 61.6789H358.027V54.119L321.906 54.4236H321.925Z" fill="#E9E9E9"/>
<path d="M361.985 32.793H303.174V40.3338H329.335V49.2743H337.38C338.282 49.2743 339.019 48.5317 339.019 47.6271V40.3338H361.985V32.793Z" fill="#E9E9E9"/>
<path d="M230.767 23.2346H221.009V2.65913C221.009 1.22141 219.858 0.0693359 218.441 0.0693359L208.177 0.374017V2.96381H209.466C209.76 2.99237 211.003 3.15423 211.04 4.55386L211.583 63.2431H219.371C220.282 63.2431 221.009 62.5004 221.009 61.5959V31.0992H230.767V23.2442V23.2346Z" fill="#E9E9E9"/>
<path d="M191.718 17.3967L191.7 12.1981H202.406C203.308 12.1981 204.044 11.4649 204.053 10.5509V10.9984V6.87569V7.5517V4.65723H169.534V12.2076H181.252V17.4062C181.381 22.8524 180.424 33.7638 166.018 43.6279L170.804 49.1788H170.823C171.062 49.4644 171.43 49.6453 171.835 49.6453L172.719 49.3026C175.296 47.3221 181.841 41.7427 185.652 34.8016C185.892 34.3922 186.324 34.1352 186.821 34.1352C187.318 34.1352 187.76 34.4017 188 34.8112V34.8302C192.133 41.8188 197.775 47.1032 200.298 49.055L201.126 49.3502C201.522 49.3502 201.872 49.1788 202.12 48.9027L206.953 43.6374C193.099 33.2211 191.691 22.7572 191.7 17.4158" fill="#E9E9E9"/>
</svg>
